<?xml version="1.0" encoding="utf-8"?>
<!-- Generator: Adobe Illustrator 24.1.3, SVG Export Plug-In . SVG Version: 6.00 Build 0)  -->
<svg version="1.1" id="Capa_1" xmlns="http://www.w3.org/2000/svg" xmlns:xlink="http://www.w3.org/1999/xlink" x="0px" y="0px"
	 viewBox="0 0 335 135" style="enable-background:new 0 0 335 135;" xml:space="preserve">
<style type="text/css">
	.st0{fill:#30BCEE;}
	.st1{fill:none;}
	.st2{fill:#252858;}
	.st3{fill:#FFFFFF;}
	.st4{fill:#C9EAF2;}
</style>
<g>
	<circle class="st0" cx="257.1" cy="24.26" r="4.99"/>
	<circle class="st0" cx="138.94" cy="24.26" r="4.99"/>
	<g>
		<polygon class="st1" points="249.72,66.14 264.61,66.14 257.19,48.22 		"/>
		<polygon class="st1" points="192.59,66.14 207.48,66.14 200.07,48.22 		"/>
		<path class="st2" d="M168.72,78.46h-24.95V36.29c0-0.86-0.69-1.55-1.55-1.55h-6.55c-0.86,0-1.55,0.69-1.55,1.55v50.27
			c0,0.86,0.69,1.55,1.55,1.55h33.06c0.86,0,1.55-0.69,1.55-1.55v-6.55C170.27,79.15,169.58,78.46,168.72,78.46z"/>
		<path class="st2" d="M204.88,35.69c-0.24-0.57-0.8-0.94-1.42-0.94h-6.84c-0.62,0-1.18,0.37-1.42,0.94l-21.32,50.27
			c-0.2,0.48-0.15,1.03,0.13,1.46c0.29,0.43,0.77,0.69,1.29,0.69h7.13c0.62,0,1.19-0.37,1.43-0.95l5-11.94h22.36l5,11.94
			c0.24,0.57,0.8,0.95,1.43,0.95h7.13c0.52,0,1-0.26,1.29-0.69c0.29-0.43,0.34-0.98,0.13-1.46L204.88,35.69z M192.59,66.14
			l7.47-17.92l7.42,17.92H192.59z"/>
		<path class="st2" d="M262.01,35.69c-0.24-0.57-0.8-0.94-1.42-0.94h-6.84c-0.62,0-1.18,0.37-1.42,0.94L231,85.95
			c-0.2,0.48-0.15,1.03,0.13,1.46c0.29,0.43,0.77,0.69,1.29,0.69h7.13c0.62,0,1.19-0.37,1.43-0.95l5-11.94h22.35l5,11.94
			c0.24,0.57,0.8,0.95,1.43,0.95h7.13c0.52,0,1-0.26,1.29-0.69c0.29-0.43,0.34-0.98,0.13-1.46L262.01,35.69z M249.72,66.14
			l7.47-17.92l7.42,17.92H249.72z"/>
		<path class="st2" d="M309.43,43.38c5.62,0,10.83,1.56,15.49,4.64c0.25,0.17,0.55,0.26,0.85,0.26h0.36c0.86,0,1.55-0.69,1.55-1.55
			v-6.48c0-0.54-0.28-1.05-0.75-1.33c-5.4-3.25-11.42-4.9-17.87-4.9c-7.73,0-14.2,2.51-19.2,7.47c-5.01,4.96-7.55,11.67-7.55,19.93
			s2.54,14.97,7.55,19.93c5.01,4.95,11.47,7.47,19.2,7.47c6.45,0,12.46-1.65,17.87-4.9c0.47-0.28,0.75-0.78,0.75-1.33v-6.48
			c0-0.86-0.69-1.55-1.55-1.55h-0.36c-0.3,0-0.6,0.09-0.85,0.26c-4.66,3.08-9.88,4.64-15.49,4.64c-5.55,0-9.75-1.63-12.83-4.97
			c-3.07-3.33-4.63-7.73-4.63-13.07c0-5.41,1.52-9.68,4.63-13.07C299.68,45.01,303.88,43.38,309.43,43.38z"/>
		<g>
			<path class="st2" d="M136.49,109.47c-0.55-0.5-0.84-1.24-0.87-2.22c-0.01-0.21-0.01-0.52-0.01-0.92c0-0.41,0-0.72,0.01-0.93
				c0.03-0.96,0.32-1.7,0.89-2.21c0.56-0.51,1.32-0.77,2.27-0.77s1.71,0.26,2.28,0.77c0.57,0.51,0.86,1.25,0.89,2.21
				c0.01,0.42,0.02,0.73,0.02,0.93c0,0.19-0.01,0.5-0.02,0.92c-0.04,0.98-0.33,1.72-0.88,2.22c-0.55,0.5-1.31,0.75-2.3,0.75
				S137.03,109.97,136.49,109.47z M139.94,108.54c0.29-0.29,0.44-0.74,0.47-1.34c0.01-0.43,0.02-0.73,0.02-0.88
				c0-0.17-0.01-0.46-0.02-0.88c-0.02-0.6-0.18-1.04-0.47-1.34s-0.68-0.44-1.16-0.44c-0.48,0-0.86,0.15-1.15,0.44
				c-0.29,0.29-0.44,0.74-0.47,1.34c-0.01,0.21-0.01,0.5-0.01,0.88c0,0.37,0,0.66,0.01,0.88c0.02,0.6,0.17,1.05,0.46,1.34
				c0.28,0.29,0.67,0.44,1.15,0.44C139.27,108.97,139.65,108.83,139.94,108.54z"/>
			<path class="st2" d="M143.9,110.04c-0.05-0.05-0.08-0.11-0.08-0.18v-7.05c0-0.08,0.02-0.14,0.07-0.19
				c0.05-0.05,0.11-0.08,0.19-0.08h3.14c0.84,0,1.47,0.19,1.89,0.56c0.42,0.37,0.62,0.88,0.62,1.52c0,0.38-0.09,0.69-0.28,0.96
				s-0.4,0.45-0.64,0.57c0.3,0.14,0.56,0.36,0.76,0.67c0.21,0.31,0.31,0.66,0.31,1.06c0,0.67-0.23,1.21-0.68,1.62
				s-1.08,0.62-1.9,0.62h-3.23C144.02,110.11,143.96,110.09,143.9,110.04z M147.04,105.64c0.38,0,0.66-0.09,0.86-0.27
				s0.29-0.42,0.29-0.73c0-0.31-0.1-0.55-0.29-0.72c-0.19-0.17-0.48-0.25-0.86-0.25h-1.7v1.97H147.04z M147.14,108.96
				c0.38,0,0.67-0.1,0.88-0.31c0.21-0.21,0.31-0.47,0.31-0.79c0-0.33-0.1-0.59-0.31-0.8c-0.21-0.21-0.5-0.31-0.88-0.31h-1.81v2.2
				H147.14z"/>
			<path class="st2" d="M152.67,109.93c-0.46-0.19-0.81-0.45-1.05-0.77c-0.24-0.32-0.36-0.66-0.38-1.03c0-0.06,0.02-0.12,0.06-0.16
				c0.04-0.04,0.1-0.06,0.16-0.06h0.96c0.09,0,0.15,0.02,0.2,0.05c0.05,0.03,0.09,0.08,0.14,0.16c0.07,0.25,0.24,0.45,0.5,0.62
				c0.26,0.17,0.61,0.25,1.06,0.25c0.51,0,0.9-0.08,1.16-0.25c0.26-0.17,0.39-0.41,0.39-0.71c0-0.2-0.07-0.37-0.2-0.5
				c-0.13-0.13-0.33-0.24-0.6-0.34c-0.26-0.09-0.66-0.21-1.18-0.35c-0.85-0.2-1.47-0.47-1.87-0.81c-0.39-0.34-0.59-0.81-0.59-1.44
				c0-0.42,0.11-0.79,0.34-1.12c0.23-0.32,0.56-0.58,0.99-0.77c0.43-0.19,0.93-0.28,1.5-0.28c0.59,0,1.1,0.1,1.54,0.31
				s0.76,0.47,0.99,0.79c0.23,0.31,0.35,0.63,0.36,0.94c0,0.06-0.02,0.12-0.06,0.16c-0.04,0.04-0.1,0.06-0.16,0.06h-1.01
				c-0.15,0-0.26-0.07-0.31-0.21c-0.04-0.23-0.19-0.42-0.43-0.58s-0.55-0.23-0.91-0.23c-0.4,0-0.72,0.08-0.95,0.23
				c-0.23,0.15-0.35,0.37-0.35,0.66c0,0.2,0.06,0.37,0.17,0.5c0.12,0.13,0.3,0.25,0.55,0.35c0.25,0.1,0.61,0.21,1.08,0.34
				c0.64,0.14,1.14,0.31,1.52,0.49c0.38,0.18,0.66,0.41,0.84,0.68c0.18,0.27,0.27,0.62,0.27,1.05c0,0.46-0.13,0.86-0.38,1.21
				c-0.26,0.34-0.62,0.6-1.08,0.79c-0.47,0.18-1,0.27-1.61,0.27C153.68,110.22,153.13,110.12,152.67,109.93z"/>
			<path class="st2" d="M159.15,110.04c-0.05-0.05-0.08-0.11-0.08-0.18v-7.05c0-0.08,0.02-0.14,0.07-0.19
				c0.05-0.05,0.11-0.08,0.19-0.08h4.77c0.08,0,0.14,0.03,0.2,0.08c0.05,0.05,0.08,0.12,0.08,0.19v0.71c0,0.08-0.03,0.14-0.08,0.19
				c-0.05,0.05-0.12,0.07-0.2,0.07h-3.56v1.92h3.32c0.08,0,0.14,0.02,0.2,0.07c0.05,0.05,0.08,0.11,0.08,0.19v0.67
				c0,0.08-0.03,0.14-0.08,0.19c-0.05,0.05-0.12,0.07-0.2,0.07h-3.32v1.98h3.65c0.08,0,0.14,0.03,0.19,0.08
				c0.05,0.05,0.08,0.12,0.08,0.2v0.71c0,0.08-0.03,0.14-0.08,0.19c-0.05,0.05-0.12,0.07-0.19,0.07h-4.85
				C159.27,110.11,159.2,110.09,159.15,110.04z"/>
			<path class="st2" d="M166.32,110.04c-0.05-0.05-0.08-0.11-0.08-0.18v-7.05c0-0.08,0.02-0.14,0.07-0.19
				c0.05-0.05,0.11-0.08,0.19-0.08h2.81c0.88,0,1.57,0.21,2.07,0.62c0.5,0.41,0.75,1,0.75,1.75c0,0.53-0.13,0.97-0.38,1.33
				c-0.26,0.36-0.61,0.62-1.07,0.77l1.58,2.76c0.02,0.04,0.03,0.08,0.03,0.12c0,0.06-0.02,0.12-0.07,0.16
				c-0.05,0.04-0.1,0.06-0.16,0.06h-0.99c-0.12,0-0.2-0.03-0.26-0.08c-0.06-0.05-0.12-0.12-0.17-0.22l-1.4-2.57h-1.5v2.6
				c0,0.07-0.02,0.13-0.07,0.18c-0.05,0.05-0.11,0.08-0.19,0.08h-0.99C166.44,110.11,166.37,110.09,166.32,110.04z M169.28,106.03
				c0.43,0,0.76-0.1,0.98-0.29s0.33-0.48,0.33-0.84s-0.11-0.65-0.33-0.86s-0.55-0.3-0.98-0.3h-1.53v2.3H169.28z"/>
			<path class="st2" d="M175.53,109.81l-2.32-6.95l-0.02-0.1c0-0.06,0.02-0.12,0.06-0.16c0.04-0.04,0.1-0.06,0.16-0.06h0.95
				c0.09,0,0.17,0.02,0.22,0.07c0.05,0.05,0.09,0.1,0.11,0.17l1.83,5.58l1.83-5.58c0.01-0.06,0.05-0.11,0.11-0.16
				c0.06-0.05,0.13-0.08,0.23-0.08h0.95c0.06,0,0.11,0.02,0.16,0.06c0.05,0.04,0.07,0.1,0.07,0.16l-0.02,0.1l-2.32,6.95
				c-0.07,0.2-0.2,0.3-0.41,0.3h-1.19C175.73,110.11,175.59,110.01,175.53,109.81z"/>
			<path class="st2" d="M180.28,110.05c-0.05-0.04-0.07-0.1-0.07-0.16l0.02-0.1l2.61-6.99c0.05-0.18,0.18-0.27,0.38-0.27h1.18
				c0.19,0,0.31,0.09,0.38,0.27l2.61,6.99c0.01,0.02,0.01,0.05,0.01,0.1c0,0.06-0.02,0.12-0.06,0.16c-0.04,0.04-0.09,0.06-0.15,0.06
				h-0.94c-0.09,0-0.17-0.02-0.22-0.06c-0.05-0.04-0.08-0.09-0.1-0.14l-0.51-1.32h-3.22l-0.51,1.32c-0.06,0.14-0.16,0.21-0.31,0.21
				h-0.94C180.38,110.11,180.33,110.09,180.28,110.05z M185.04,107.34l-1.24-3.35l-1.22,3.35H185.04z"/>
			<path class="st2" d="M189.79,110.04c-0.05-0.05-0.08-0.11-0.08-0.18v-5.99h-2c-0.07,0-0.13-0.03-0.18-0.08
				c-0.05-0.05-0.08-0.11-0.08-0.18v-0.8c0-0.08,0.02-0.14,0.07-0.19c0.05-0.05,0.11-0.08,0.19-0.08h5.52c0.08,0,0.14,0.03,0.2,0.08
				c0.05,0.05,0.08,0.12,0.08,0.19v0.8c0,0.07-0.03,0.13-0.08,0.18c-0.05,0.05-0.12,0.08-0.2,0.08h-1.99v5.99
				c0,0.07-0.03,0.13-0.08,0.18c-0.05,0.05-0.12,0.08-0.2,0.08h-1C189.91,110.11,189.84,110.09,189.79,110.04z"/>
			<path class="st2" d="M195.51,109.47c-0.55-0.5-0.84-1.24-0.87-2.22c-0.01-0.21-0.01-0.52-0.01-0.92c0-0.41,0-0.72,0.01-0.93
				c0.03-0.96,0.33-1.7,0.89-2.21c0.56-0.51,1.32-0.77,2.27-0.77s1.71,0.26,2.28,0.77c0.57,0.51,0.86,1.25,0.89,2.21
				c0.01,0.42,0.02,0.73,0.02,0.93c0,0.19-0.01,0.5-0.02,0.92c-0.04,0.98-0.33,1.72-0.88,2.22c-0.55,0.5-1.31,0.75-2.3,0.75
				C196.83,110.22,196.06,109.97,195.51,109.47z M198.97,108.54c0.29-0.29,0.44-0.74,0.47-1.34c0.01-0.43,0.02-0.73,0.02-0.88
				c0-0.17-0.01-0.46-0.02-0.88c-0.02-0.6-0.18-1.04-0.47-1.34s-0.67-0.44-1.16-0.44c-0.48,0-0.86,0.15-1.15,0.44
				c-0.29,0.29-0.44,0.74-0.47,1.34c-0.01,0.21-0.01,0.5-0.01,0.88c0,0.37,0,0.66,0.01,0.88c0.02,0.6,0.17,1.05,0.46,1.34
				s0.67,0.44,1.15,0.44C198.29,108.97,198.68,108.83,198.97,108.54z"/>
			<path class="st2" d="M202.93,110.04c-0.05-0.05-0.08-0.11-0.08-0.18v-7.05c0-0.08,0.02-0.14,0.07-0.19
				c0.05-0.05,0.11-0.08,0.19-0.08h2.81c0.88,0,1.57,0.21,2.07,0.62c0.5,0.41,0.75,1,0.75,1.75c0,0.53-0.13,0.97-0.38,1.33
				c-0.26,0.36-0.61,0.62-1.07,0.77l1.58,2.76c0.02,0.04,0.03,0.08,0.03,0.12c0,0.06-0.02,0.12-0.07,0.16
				c-0.05,0.04-0.1,0.06-0.16,0.06h-0.99c-0.12,0-0.2-0.03-0.26-0.08c-0.06-0.05-0.12-0.12-0.17-0.22l-1.4-2.57h-1.5v2.6
				c0,0.07-0.02,0.13-0.07,0.18c-0.05,0.05-0.11,0.08-0.19,0.08h-0.99C203.04,110.11,202.98,110.09,202.93,110.04z M205.89,106.03
				c0.43,0,0.76-0.1,0.98-0.29s0.33-0.48,0.33-0.84s-0.11-0.65-0.33-0.86s-0.55-0.3-0.98-0.3h-1.53v2.3H205.89z"/>
			<path class="st2" d="M210.65,110.04c-0.05-0.05-0.08-0.11-0.08-0.18v-7.06c0-0.08,0.03-0.14,0.08-0.19
				c0.05-0.05,0.11-0.07,0.18-0.07h1.02c0.08,0,0.14,0.02,0.19,0.07s0.07,0.11,0.07,0.19v7.06c0,0.07-0.02,0.13-0.07,0.18
				c-0.05,0.05-0.11,0.08-0.19,0.08h-1.02C210.76,110.11,210.7,110.09,210.65,110.04z"/>
			<path class="st2" d="M214.87,109.47c-0.55-0.5-0.84-1.24-0.87-2.22c-0.01-0.21-0.01-0.52-0.01-0.92c0-0.41,0-0.72,0.01-0.93
				c0.03-0.96,0.33-1.7,0.89-2.21c0.56-0.51,1.32-0.77,2.27-0.77s1.71,0.26,2.28,0.77c0.57,0.51,0.86,1.25,0.89,2.21
				c0.01,0.42,0.02,0.73,0.02,0.93c0,0.19-0.01,0.5-0.02,0.92c-0.04,0.98-0.33,1.72-0.88,2.22c-0.55,0.5-1.31,0.75-2.3,0.75
				C216.18,110.22,215.42,109.97,214.87,109.47z M218.32,108.54c0.29-0.29,0.44-0.74,0.47-1.34c0.01-0.43,0.02-0.73,0.02-0.88
				c0-0.17-0.01-0.46-0.02-0.88c-0.02-0.6-0.18-1.04-0.47-1.34s-0.67-0.44-1.16-0.44c-0.48,0-0.86,0.15-1.15,0.44
				c-0.29,0.29-0.44,0.74-0.47,1.34c-0.01,0.21-0.01,0.5-0.01,0.88c0,0.37,0,0.66,0.01,0.88c0.02,0.6,0.17,1.05,0.46,1.34
				s0.67,0.44,1.15,0.44C217.65,108.97,218.03,108.83,218.32,108.54z"/>
			<path class="st2" d="M225.2,110.04c-0.05-0.05-0.08-0.11-0.08-0.18v-7.06c0-0.08,0.03-0.14,0.08-0.19
				c0.05-0.05,0.11-0.07,0.18-0.07h1.01c0.08,0,0.14,0.02,0.19,0.07s0.07,0.11,0.07,0.19v6.03h3.43c0.08,0,0.14,0.03,0.2,0.08
				c0.05,0.05,0.08,0.12,0.08,0.19v0.76c0,0.08-0.03,0.14-0.08,0.19s-0.12,0.07-0.2,0.07h-4.7
				C225.31,110.11,225.25,110.09,225.2,110.04z"/>
			<path class="st2" d="M231.21,110.05c-0.05-0.04-0.07-0.1-0.07-0.16l0.02-0.1l2.61-6.99c0.05-0.18,0.18-0.27,0.38-0.27h1.18
				c0.19,0,0.31,0.09,0.38,0.27l2.61,6.99c0.01,0.02,0.01,0.05,0.01,0.1c0,0.06-0.02,0.12-0.06,0.16c-0.04,0.04-0.09,0.06-0.15,0.06
				h-0.94c-0.09,0-0.17-0.02-0.22-0.06c-0.05-0.04-0.08-0.09-0.1-0.14l-0.51-1.32h-3.22l-0.51,1.32c-0.06,0.14-0.16,0.21-0.31,0.21
				h-0.94C231.31,110.11,231.26,110.09,231.21,110.05z M235.97,107.34l-1.24-3.35l-1.22,3.35H235.97z"/>
			<path class="st2" d="M240.73,110.04c-0.05-0.05-0.08-0.11-0.08-0.18v-5.99h-2c-0.07,0-0.13-0.03-0.18-0.08
				c-0.05-0.05-0.08-0.11-0.08-0.18v-0.8c0-0.08,0.02-0.14,0.07-0.19c0.05-0.05,0.11-0.08,0.19-0.08h5.52c0.08,0,0.14,0.03,0.2,0.08
				c0.05,0.05,0.08,0.12,0.08,0.19v0.8c0,0.07-0.03,0.13-0.08,0.18c-0.05,0.05-0.12,0.08-0.2,0.08h-1.99v5.99
				c0,0.07-0.03,0.13-0.08,0.18c-0.05,0.05-0.12,0.08-0.2,0.08h-1C240.84,110.11,240.78,110.09,240.73,110.04z"/>
			<path class="st2" d="M246.05,110.04c-0.05-0.05-0.08-0.11-0.08-0.18v-7.06c0-0.08,0.03-0.14,0.08-0.19
				c0.05-0.05,0.11-0.07,0.18-0.07h1.02c0.08,0,0.14,0.02,0.19,0.07s0.07,0.11,0.07,0.19v7.06c0,0.07-0.02,0.13-0.07,0.18
				c-0.05,0.05-0.11,0.08-0.19,0.08h-1.02C246.16,110.11,246.1,110.09,246.05,110.04z"/>
			<path class="st2" d="M249.72,110.04c-0.05-0.05-0.08-0.11-0.08-0.18v-7.05c0-0.08,0.02-0.14,0.07-0.19
				c0.05-0.05,0.11-0.08,0.19-0.08h0.83c0.09,0,0.15,0.02,0.2,0.05c0.04,0.03,0.08,0.07,0.12,0.12l3.12,4.85v-4.75
				c0-0.08,0.02-0.14,0.07-0.19c0.05-0.05,0.11-0.08,0.19-0.08h0.91c0.08,0,0.14,0.03,0.19,0.08c0.05,0.05,0.08,0.12,0.08,0.19v7.04
				c0,0.08-0.03,0.14-0.08,0.2c-0.05,0.05-0.11,0.08-0.18,0.08h-0.84c-0.12,0-0.23-0.06-0.31-0.17l-3.11-4.74v4.66
				c0,0.08-0.03,0.14-0.08,0.19c-0.05,0.05-0.12,0.07-0.19,0.07h-0.91C249.83,110.11,249.77,110.09,249.72,110.04z"/>
			<path class="st2" d="M258.35,109.47c-0.55-0.5-0.84-1.24-0.87-2.22c-0.01-0.21-0.01-0.52-0.01-0.92c0-0.41,0-0.72,0.01-0.93
				c0.03-0.96,0.33-1.7,0.89-2.21c0.56-0.51,1.32-0.77,2.27-0.77s1.71,0.26,2.28,0.77c0.57,0.51,0.86,1.25,0.89,2.21
				c0.01,0.42,0.02,0.73,0.02,0.93c0,0.19-0.01,0.5-0.02,0.92c-0.04,0.98-0.33,1.72-0.88,2.22c-0.55,0.5-1.31,0.75-2.3,0.75
				C259.66,110.22,258.9,109.97,258.35,109.47z M261.8,108.54c0.29-0.29,0.44-0.74,0.47-1.34c0.01-0.43,0.02-0.73,0.02-0.88
				c0-0.17-0.01-0.46-0.02-0.88c-0.02-0.6-0.18-1.04-0.47-1.34s-0.67-0.44-1.16-0.44c-0.48,0-0.86,0.15-1.15,0.44
				c-0.29,0.29-0.44,0.74-0.47,1.34c-0.01,0.21-0.01,0.5-0.01,0.88c0,0.37,0,0.66,0.01,0.88c0.02,0.6,0.17,1.05,0.46,1.34
				s0.67,0.44,1.15,0.44C261.13,108.97,261.52,108.83,261.8,108.54z"/>
			<path class="st2" d="M264.92,110.05c-0.05-0.04-0.07-0.1-0.07-0.16l0.02-0.1l2.61-6.99c0.05-0.18,0.18-0.27,0.38-0.27h1.18
				c0.19,0,0.31,0.09,0.38,0.27l2.61,6.99c0.01,0.02,0.01,0.05,0.01,0.1c0,0.06-0.02,0.12-0.06,0.16c-0.04,0.04-0.09,0.06-0.15,0.06
				h-0.94c-0.09,0-0.17-0.02-0.22-0.06c-0.05-0.04-0.08-0.09-0.1-0.14l-0.51-1.32h-3.22l-0.51,1.32c-0.06,0.14-0.16,0.21-0.31,0.21
				h-0.94C265.02,110.11,264.97,110.09,264.92,110.05z M269.68,107.34l-1.24-3.35l-1.22,3.35H269.68z"/>
			<path class="st2" d="M273.56,110.04c-0.05-0.05-0.08-0.11-0.08-0.19v-7.05c0-0.08,0.03-0.14,0.08-0.19
				c0.05-0.05,0.12-0.08,0.19-0.08h0.86c0.15,0,0.26,0.07,0.33,0.21l2.09,3.9l2.11-3.9c0.07-0.14,0.18-0.21,0.33-0.21h0.84
				c0.08,0,0.14,0.03,0.2,0.08c0.05,0.05,0.08,0.12,0.08,0.19v7.05c0,0.08-0.03,0.14-0.08,0.19c-0.05,0.05-0.12,0.07-0.2,0.07h-0.91
				c-0.07,0-0.13-0.03-0.18-0.08c-0.05-0.05-0.08-0.11-0.08-0.18v-4.69l-1.52,2.89c-0.09,0.16-0.22,0.24-0.37,0.24h-0.44
				c-0.15,0-0.27-0.08-0.37-0.24l-1.52-2.89v4.69c0,0.07-0.02,0.13-0.07,0.18c-0.05,0.05-0.11,0.08-0.19,0.08h-0.91
				C273.67,110.11,273.61,110.09,273.56,110.04z"/>
			<path class="st2" d="M282.77,110.04c-0.05-0.05-0.08-0.11-0.08-0.18v-7.05c0-0.08,0.02-0.14,0.07-0.19
				c0.05-0.05,0.11-0.08,0.19-0.08h4.77c0.08,0,0.14,0.03,0.2,0.08c0.05,0.05,0.08,0.12,0.08,0.19v0.71c0,0.08-0.03,0.14-0.08,0.19
				c-0.05,0.05-0.12,0.07-0.2,0.07h-3.56v1.92h3.33c0.08,0,0.14,0.02,0.2,0.07c0.05,0.05,0.08,0.11,0.08,0.19v0.67
				c0,0.08-0.03,0.14-0.08,0.19c-0.05,0.05-0.12,0.07-0.2,0.07h-3.33v1.98h3.65c0.08,0,0.14,0.03,0.19,0.08
				c0.05,0.05,0.08,0.12,0.08,0.2v0.71c0,0.08-0.03,0.14-0.08,0.19c-0.05,0.05-0.12,0.07-0.19,0.07h-4.85
				C282.88,110.11,282.82,110.09,282.77,110.04z"/>
			<path class="st2" d="M289.94,110.04c-0.05-0.05-0.08-0.11-0.08-0.18v-7.05c0-0.08,0.02-0.14,0.07-0.19
				c0.05-0.05,0.11-0.08,0.19-0.08h2.81c0.88,0,1.57,0.21,2.07,0.62c0.5,0.41,0.75,1,0.75,1.75c0,0.53-0.13,0.97-0.38,1.33
				c-0.26,0.36-0.61,0.62-1.07,0.77l1.58,2.76c0.02,0.04,0.03,0.08,0.03,0.12c0,0.06-0.02,0.12-0.07,0.16
				c-0.05,0.04-0.1,0.06-0.16,0.06h-0.99c-0.12,0-0.2-0.03-0.26-0.08c-0.06-0.05-0.12-0.12-0.17-0.22l-1.4-2.57h-1.5v2.6
				c0,0.07-0.02,0.13-0.07,0.18c-0.05,0.05-0.11,0.08-0.19,0.08h-0.99C290.05,110.11,289.99,110.09,289.94,110.04z M292.9,106.03
				c0.43,0,0.76-0.1,0.98-0.29s0.33-0.48,0.33-0.84s-0.11-0.65-0.33-0.86s-0.55-0.3-0.98-0.3h-1.53v2.3H292.9z"/>
			<path class="st2" d="M297.67,110.04c-0.05-0.05-0.08-0.11-0.08-0.18v-7.06c0-0.08,0.03-0.14,0.08-0.19
				c0.05-0.05,0.11-0.07,0.18-0.07h1.02c0.08,0,0.14,0.02,0.19,0.07s0.07,0.11,0.07,0.19v7.06c0,0.07-0.02,0.13-0.07,0.18
				c-0.05,0.05-0.11,0.08-0.19,0.08h-1.02C297.78,110.11,297.71,110.09,297.67,110.04z"/>
			<path class="st2" d="M301.87,109.45c-0.55-0.51-0.84-1.23-0.87-2.17c-0.01-0.19-0.01-0.51-0.01-0.95c0-0.45,0-0.77,0.01-0.97
				c0.04-0.92,0.33-1.64,0.88-2.16c0.55-0.52,1.32-0.77,2.3-0.77c0.64,0,1.2,0.11,1.68,0.33c0.48,0.22,0.84,0.52,1.1,0.9
				s0.4,0.81,0.41,1.28v0.02c0,0.06-0.02,0.11-0.07,0.15c-0.05,0.04-0.1,0.06-0.16,0.06h-1.03c-0.09,0-0.15-0.02-0.2-0.05
				c-0.04-0.04-0.08-0.1-0.11-0.21c-0.12-0.46-0.31-0.77-0.57-0.96c-0.27-0.18-0.62-0.28-1.07-0.28c-1.04,0-1.58,0.58-1.62,1.74
				c-0.01,0.2-0.01,0.5-0.01,0.9c0,0.4,0,0.71,0.01,0.92c0.04,1.16,0.58,1.74,1.62,1.74c0.45,0,0.81-0.09,1.08-0.28
				c0.27-0.19,0.46-0.51,0.57-0.95c0.02-0.1,0.06-0.17,0.1-0.21c0.05-0.04,0.11-0.05,0.2-0.05h1.03c0.07,0,0.12,0.02,0.17,0.06
				s0.07,0.1,0.06,0.16c-0.01,0.48-0.15,0.9-0.41,1.28c-0.26,0.38-0.63,0.68-1.1,0.9c-0.48,0.22-1.04,0.33-1.68,0.33
				C303.19,110.22,302.42,109.96,301.87,109.45z"/>
			<path class="st2" d="M308.39,110.05c-0.05-0.04-0.07-0.1-0.07-0.16l0.02-0.1l2.61-6.99c0.05-0.18,0.18-0.27,0.38-0.27h1.18
				c0.19,0,0.31,0.09,0.38,0.27l2.61,6.99c0.01,0.02,0.01,0.05,0.01,0.1c0,0.06-0.02,0.12-0.06,0.16c-0.04,0.04-0.09,0.06-0.15,0.06
				h-0.94c-0.09,0-0.17-0.02-0.22-0.06c-0.05-0.04-0.08-0.09-0.1-0.14l-0.51-1.32h-3.22l-0.51,1.32c-0.06,0.14-0.16,0.21-0.31,0.21
				h-0.94C308.49,110.11,308.44,110.09,308.39,110.05z M313.15,107.34l-1.24-3.35l-1.22,3.35H313.15z"/>
			<path class="st2" d="M317.03,110.04c-0.05-0.05-0.08-0.11-0.08-0.18v-7.05c0-0.08,0.02-0.14,0.07-0.19
				c0.05-0.05,0.11-0.08,0.19-0.08h0.83c0.09,0,0.15,0.02,0.2,0.05c0.04,0.03,0.08,0.07,0.12,0.12l3.12,4.85v-4.75
				c0-0.08,0.02-0.14,0.07-0.19c0.05-0.05,0.11-0.08,0.19-0.08h0.91c0.08,0,0.14,0.03,0.19,0.08c0.05,0.05,0.08,0.12,0.08,0.19v7.04
				c0,0.08-0.03,0.14-0.08,0.2c-0.05,0.05-0.11,0.08-0.18,0.08h-0.84c-0.12,0-0.23-0.06-0.31-0.17l-3.11-4.74v4.66
				c0,0.08-0.03,0.14-0.08,0.19c-0.05,0.05-0.12,0.07-0.19,0.07h-0.91C317.14,110.11,317.08,110.09,317.03,110.04z"/>
			<path class="st2" d="M325.66,109.47c-0.55-0.5-0.84-1.24-0.87-2.22c-0.01-0.21-0.01-0.52-0.01-0.92c0-0.41,0-0.72,0.01-0.93
				c0.03-0.96,0.33-1.7,0.89-2.21c0.56-0.51,1.32-0.77,2.27-0.77s1.71,0.26,2.28,0.77c0.57,0.51,0.86,1.25,0.89,2.21
				c0.01,0.42,0.02,0.73,0.02,0.93c0,0.19-0.01,0.5-0.02,0.92c-0.04,0.98-0.33,1.72-0.88,2.22c-0.55,0.5-1.31,0.75-2.3,0.75
				C326.98,110.22,326.21,109.97,325.66,109.47z M329.12,108.54c0.29-0.29,0.44-0.74,0.47-1.34c0.01-0.43,0.02-0.73,0.02-0.88
				c0-0.17-0.01-0.46-0.02-0.88c-0.02-0.6-0.18-1.04-0.47-1.34s-0.67-0.44-1.16-0.44c-0.48,0-0.86,0.15-1.15,0.44
				c-0.29,0.29-0.44,0.74-0.47,1.34c-0.01,0.21-0.01,0.5-0.01,0.88c0,0.37,0,0.66,0.01,0.88c0.02,0.6,0.17,1.05,0.46,1.34
				s0.67,0.44,1.15,0.44C328.44,108.97,328.83,108.83,329.12,108.54z"/>
			<path class="st2" d="M135.94,123.03c-0.05-0.05-0.08-0.11-0.08-0.18v-7.05c0-0.08,0.02-0.14,0.07-0.19
				c0.05-0.05,0.11-0.08,0.19-0.08h2.64c2.12,0,3.21,0.98,3.25,2.95c0.01,0.42,0.02,0.7,0.02,0.84c0,0.14-0.01,0.42-0.02,0.83
				c-0.03,1.01-0.3,1.76-0.81,2.24c-0.51,0.48-1.31,0.72-2.38,0.72h-2.7C136.06,123.11,136,123.08,135.94,123.03z M138.77,121.86
				c0.61,0,1.04-0.14,1.31-0.41c0.27-0.27,0.41-0.72,0.42-1.34c0.01-0.43,0.02-0.7,0.02-0.81c0-0.12-0.01-0.38-0.02-0.8
				c-0.01-0.59-0.16-1.03-0.45-1.31c-0.29-0.28-0.73-0.42-1.34-0.42h-1.34v5.09H138.77z"/>
			<path class="st2" d="M143.99,123.03c-0.05-0.05-0.08-0.11-0.08-0.18v-7.05c0-0.08,0.02-0.14,0.07-0.19
				c0.05-0.05,0.11-0.08,0.19-0.08h4.77c0.08,0,0.14,0.03,0.19,0.08c0.05,0.05,0.08,0.12,0.08,0.19v0.71c0,0.08-0.03,0.14-0.08,0.19
				c-0.05,0.05-0.12,0.07-0.19,0.07h-3.56v1.92h3.32c0.08,0,0.14,0.02,0.19,0.07c0.05,0.05,0.08,0.11,0.08,0.19v0.67
				c0,0.08-0.03,0.14-0.08,0.19c-0.05,0.05-0.12,0.07-0.19,0.07h-3.32v1.98h3.65c0.08,0,0.14,0.03,0.19,0.08
				c0.05,0.05,0.08,0.12,0.08,0.2v0.71c0,0.08-0.03,0.14-0.08,0.19c-0.05,0.05-0.12,0.07-0.19,0.07h-4.85
				C144.1,123.11,144.04,123.08,143.99,123.03z"/>
			<path class="st2" d="M153.09,123.04c-0.05-0.04-0.07-0.1-0.07-0.16l0.02-0.1l2.61-6.99c0.05-0.18,0.18-0.27,0.38-0.27h1.18
				c0.19,0,0.31,0.09,0.38,0.27l2.61,6.99c0.01,0.02,0.01,0.05,0.01,0.1c0,0.06-0.02,0.12-0.06,0.16c-0.04,0.04-0.09,0.06-0.15,0.06
				h-0.94c-0.09,0-0.17-0.02-0.22-0.06c-0.05-0.04-0.08-0.09-0.1-0.14l-0.51-1.32h-3.22l-0.51,1.32c-0.06,0.14-0.16,0.21-0.31,0.21
				h-0.94C153.19,123.11,153.14,123.09,153.09,123.04z M157.85,120.33l-1.23-3.35l-1.22,3.35H157.85z"/>
			<path class="st2" d="M162.12,122.45c-0.54-0.51-0.84-1.23-0.87-2.17c-0.01-0.19-0.01-0.51-0.01-0.95c0-0.45,0-0.77,0.01-0.97
				c0.04-0.92,0.33-1.64,0.88-2.16c0.55-0.52,1.32-0.77,2.3-0.77c0.64,0,1.2,0.11,1.68,0.33c0.47,0.22,0.84,0.52,1.1,0.9
				s0.4,0.81,0.41,1.28v0.02c0,0.06-0.02,0.11-0.07,0.15c-0.05,0.04-0.1,0.06-0.16,0.06h-1.03c-0.09,0-0.15-0.02-0.2-0.05
				c-0.04-0.04-0.08-0.1-0.11-0.21c-0.12-0.46-0.31-0.77-0.57-0.96c-0.27-0.18-0.62-0.28-1.07-0.28c-1.04,0-1.58,0.58-1.62,1.74
				c-0.01,0.2-0.01,0.5-0.01,0.9c0,0.4,0,0.71,0.01,0.92c0.04,1.16,0.58,1.74,1.62,1.74c0.45,0,0.81-0.09,1.08-0.28
				c0.27-0.19,0.46-0.51,0.57-0.95c0.02-0.1,0.06-0.17,0.1-0.21s0.11-0.05,0.2-0.05h1.03c0.07,0,0.12,0.02,0.17,0.06
				s0.07,0.1,0.06,0.16c-0.02,0.48-0.15,0.9-0.41,1.28c-0.26,0.38-0.63,0.68-1.1,0.9c-0.48,0.22-1.04,0.33-1.68,0.33
				C163.43,123.22,162.66,122.96,162.12,122.45z"/>
			<path class="st2" d="M169.96,122.45c-0.55-0.51-0.84-1.23-0.87-2.17c-0.01-0.19-0.01-0.51-0.01-0.95c0-0.45,0-0.77,0.01-0.97
				c0.04-0.92,0.33-1.64,0.88-2.16c0.55-0.52,1.32-0.77,2.3-0.77c0.64,0,1.2,0.11,1.68,0.33c0.48,0.22,0.84,0.52,1.1,0.9
				s0.4,0.81,0.41,1.28v0.02c0,0.06-0.02,0.11-0.07,0.15c-0.05,0.04-0.1,0.06-0.16,0.06h-1.03c-0.09,0-0.15-0.02-0.2-0.05
				c-0.04-0.04-0.08-0.1-0.11-0.21c-0.12-0.46-0.31-0.77-0.57-0.96c-0.27-0.18-0.62-0.28-1.07-0.28c-1.04,0-1.58,0.58-1.62,1.74
				c-0.01,0.2-0.01,0.5-0.01,0.9c0,0.4,0,0.71,0.01,0.92c0.04,1.16,0.58,1.74,1.62,1.74c0.45,0,0.81-0.09,1.08-0.28
				c0.27-0.19,0.46-0.51,0.57-0.95c0.02-0.1,0.06-0.17,0.1-0.21c0.05-0.04,0.11-0.05,0.2-0.05h1.03c0.07,0,0.12,0.02,0.17,0.06
				s0.07,0.1,0.06,0.16c-0.01,0.48-0.15,0.9-0.41,1.28c-0.26,0.38-0.63,0.68-1.1,0.9c-0.48,0.22-1.04,0.33-1.68,0.33
				C171.27,123.22,170.5,122.96,169.96,122.45z"/>
			<path class="st2" d="M177.26,123.03c-0.05-0.05-0.08-0.11-0.08-0.18v-7.05c0-0.08,0.02-0.14,0.07-0.19
				c0.05-0.05,0.11-0.08,0.19-0.08h4.77c0.08,0,0.14,0.03,0.2,0.08c0.05,0.05,0.08,0.12,0.08,0.19v0.71c0,0.08-0.03,0.14-0.08,0.19
				c-0.05,0.05-0.12,0.07-0.2,0.07h-3.56v1.92h3.33c0.08,0,0.14,0.02,0.2,0.07c0.05,0.05,0.08,0.11,0.08,0.19v0.67
				c0,0.08-0.03,0.14-0.08,0.19c-0.05,0.05-0.12,0.07-0.2,0.07h-3.33v1.98h3.65c0.08,0,0.14,0.03,0.19,0.08
				c0.05,0.05,0.08,0.12,0.08,0.2v0.71c0,0.08-0.03,0.14-0.08,0.19c-0.05,0.05-0.12,0.07-0.19,0.07h-4.85
				C177.37,123.11,177.31,123.08,177.26,123.03z"/>
			<path class="st2" d="M185.33,122.92c-0.46-0.19-0.81-0.45-1.05-0.77c-0.24-0.32-0.36-0.66-0.38-1.03c0-0.06,0.02-0.12,0.07-0.16
				c0.04-0.04,0.1-0.06,0.16-0.06h0.96c0.09,0,0.15,0.02,0.2,0.05c0.05,0.03,0.09,0.08,0.14,0.16c0.07,0.25,0.24,0.45,0.5,0.62
				s0.61,0.25,1.06,0.25c0.51,0,0.9-0.08,1.16-0.25c0.26-0.17,0.39-0.41,0.39-0.71c0-0.2-0.07-0.37-0.2-0.5
				c-0.13-0.13-0.33-0.24-0.6-0.34s-0.66-0.21-1.17-0.35c-0.85-0.2-1.48-0.47-1.87-0.81c-0.39-0.34-0.59-0.81-0.59-1.44
				c0-0.42,0.11-0.79,0.34-1.12c0.23-0.32,0.56-0.58,0.99-0.77c0.43-0.19,0.93-0.28,1.5-0.28c0.59,0,1.1,0.1,1.54,0.31
				c0.43,0.21,0.76,0.47,0.99,0.79s0.35,0.63,0.36,0.94c0,0.06-0.02,0.12-0.07,0.16c-0.04,0.04-0.1,0.06-0.16,0.06h-1.01
				c-0.15,0-0.26-0.07-0.31-0.21c-0.04-0.23-0.19-0.42-0.43-0.58s-0.55-0.23-0.91-0.23c-0.41,0-0.72,0.08-0.95,0.23
				c-0.23,0.15-0.35,0.37-0.35,0.66c0,0.2,0.06,0.37,0.17,0.5c0.12,0.13,0.3,0.25,0.55,0.35c0.25,0.1,0.61,0.21,1.08,0.34
				c0.63,0.14,1.14,0.31,1.52,0.49c0.38,0.18,0.66,0.41,0.84,0.68c0.18,0.27,0.27,0.62,0.27,1.05c0,0.46-0.13,0.86-0.38,1.21
				c-0.26,0.34-0.62,0.6-1.08,0.79c-0.47,0.18-1,0.27-1.61,0.27C186.35,123.22,185.79,123.12,185.33,122.92z"/>
			<path class="st2" d="M191.82,123.03c-0.05-0.05-0.08-0.11-0.08-0.18v-7.06c0-0.08,0.03-0.14,0.08-0.19
				c0.05-0.05,0.11-0.07,0.18-0.07h1.02c0.08,0,0.14,0.02,0.19,0.07s0.07,0.11,0.07,0.19v7.06c0,0.07-0.02,0.13-0.07,0.18
				c-0.05,0.05-0.11,0.08-0.19,0.08H192C191.93,123.11,191.87,123.08,191.82,123.03z"/>
			<path class="st2" d="M195.49,123.03c-0.05-0.05-0.08-0.11-0.08-0.18v-7.05c0-0.08,0.02-0.14,0.07-0.19
				c0.05-0.05,0.11-0.08,0.19-0.08h3.14c0.85,0,1.47,0.19,1.89,0.56c0.42,0.37,0.62,0.88,0.62,1.52c0,0.38-0.09,0.69-0.28,0.96
				c-0.18,0.26-0.4,0.45-0.64,0.57c0.3,0.14,0.56,0.36,0.76,0.67c0.21,0.31,0.31,0.66,0.31,1.06c0,0.67-0.23,1.21-0.68,1.62
				c-0.45,0.41-1.08,0.62-1.9,0.62h-3.23C195.6,123.11,195.54,123.08,195.49,123.03z M198.62,118.63c0.38,0,0.66-0.09,0.86-0.27
				s0.29-0.42,0.29-0.73c0-0.31-0.1-0.55-0.29-0.72c-0.2-0.17-0.48-0.25-0.86-0.25h-1.7v1.97H198.62z M198.73,121.96
				c0.38,0,0.67-0.1,0.88-0.31c0.21-0.21,0.31-0.47,0.31-0.79c0-0.33-0.11-0.59-0.31-0.8c-0.21-0.21-0.5-0.31-0.88-0.31h-1.81v2.2
				H198.73z"/>
			<path class="st2" d="M203.35,123.03c-0.05-0.05-0.08-0.11-0.08-0.18v-7.06c0-0.08,0.03-0.14,0.08-0.19
				c0.05-0.05,0.11-0.07,0.18-0.07h1.02c0.08,0,0.14,0.02,0.19,0.07s0.07,0.11,0.07,0.19v7.06c0,0.07-0.02,0.13-0.07,0.18
				c-0.05,0.05-0.11,0.08-0.19,0.08h-1.02C203.46,123.11,203.4,123.08,203.35,123.03z"/>
			<path class="st2" d="M207.03,123.03c-0.05-0.05-0.08-0.11-0.08-0.18v-7.06c0-0.08,0.03-0.14,0.08-0.19
				c0.05-0.05,0.11-0.07,0.18-0.07h1.01c0.08,0,0.14,0.02,0.19,0.07s0.07,0.11,0.07,0.19v6.03h3.43c0.08,0,0.14,0.03,0.2,0.08
				c0.05,0.05,0.08,0.12,0.08,0.19v0.76c0,0.08-0.03,0.14-0.08,0.19s-0.12,0.07-0.2,0.07h-4.7
				C207.14,123.11,207.08,123.08,207.03,123.03z"/>
			<path class="st2" d="M213.74,123.03c-0.05-0.05-0.08-0.11-0.08-0.18v-7.06c0-0.08,0.03-0.14,0.08-0.19
				c0.05-0.05,0.11-0.07,0.18-0.07h1.02c0.08,0,0.14,0.02,0.19,0.07s0.07,0.11,0.07,0.19v7.06c0,0.07-0.02,0.13-0.07,0.18
				c-0.05,0.05-0.11,0.08-0.19,0.08h-1.02C213.85,123.11,213.79,123.08,213.74,123.03z"/>
			<path class="st2" d="M217.41,123.03c-0.05-0.05-0.08-0.11-0.08-0.18v-7.05c0-0.08,0.02-0.14,0.07-0.19
				c0.05-0.05,0.11-0.08,0.19-0.08h2.64c2.12,0,3.21,0.98,3.25,2.95c0.01,0.42,0.02,0.7,0.02,0.84c0,0.14-0.01,0.42-0.02,0.83
				c-0.03,1.01-0.3,1.76-0.81,2.24c-0.51,0.48-1.31,0.72-2.38,0.72h-2.7C217.52,123.11,217.46,123.08,217.41,123.03z M220.24,121.86
				c0.61,0,1.04-0.14,1.31-0.41c0.27-0.27,0.41-0.72,0.42-1.34c0.01-0.43,0.02-0.7,0.02-0.81c0-0.12-0.01-0.38-0.02-0.8
				c-0.01-0.59-0.16-1.03-0.45-1.31c-0.29-0.28-0.73-0.42-1.34-0.42h-1.34v5.09H220.24z"/>
			<path class="st2" d="M224.61,123.04c-0.05-0.04-0.07-0.1-0.07-0.16l0.02-0.1l2.61-6.99c0.05-0.18,0.18-0.27,0.38-0.27h1.18
				c0.19,0,0.31,0.09,0.38,0.27l2.61,6.99c0.01,0.02,0.01,0.05,0.01,0.1c0,0.06-0.02,0.12-0.06,0.16c-0.04,0.04-0.09,0.06-0.15,0.06
				h-0.94c-0.09,0-0.17-0.02-0.22-0.06c-0.05-0.04-0.08-0.09-0.1-0.14l-0.51-1.32h-3.22l-0.51,1.32c-0.06,0.14-0.16,0.21-0.31,0.21
				h-0.94C224.71,123.11,224.65,123.09,224.61,123.04z M229.37,120.33l-1.24-3.35l-1.22,3.35H229.37z"/>
			<path class="st2" d="M233.25,123.03c-0.05-0.05-0.08-0.11-0.08-0.18v-7.05c0-0.08,0.02-0.14,0.07-0.19
				c0.05-0.05,0.11-0.08,0.19-0.08h2.64c2.12,0,3.21,0.98,3.25,2.95c0.01,0.42,0.02,0.7,0.02,0.84c0,0.14-0.01,0.42-0.02,0.83
				c-0.03,1.01-0.3,1.76-0.81,2.24c-0.51,0.48-1.31,0.72-2.38,0.72h-2.7C233.36,123.11,233.29,123.08,233.25,123.03z M236.07,121.86
				c0.61,0,1.04-0.14,1.31-0.41c0.27-0.27,0.41-0.72,0.42-1.34c0.01-0.43,0.02-0.7,0.02-0.81c0-0.12-0.01-0.38-0.02-0.8
				c-0.01-0.59-0.16-1.03-0.45-1.31c-0.29-0.28-0.73-0.42-1.34-0.42h-1.34v5.09H236.07z"/>
		</g>
		<g>
			<path class="st2" d="M69.51,15.87C34.53,14.78,6.65,44.49,10,79.35c2.72,28.32,26.19,50.76,54.61,52.16
				c15.85,0.78,30.3-4.78,41.14-14.3c1.33-1.17,1.37-3.23,0.08-4.45l-9.34-8.77c-1.06-0.99-2.68-1.09-3.83-0.21
				c-6.86,5.25-15.36,8.49-24.65,8.78c-24.53,0.77-44.89-19.26-44.13-44.17c0.65-21.35,17.45-39.23,38.71-41.22
				c24.82-2.32,46.08,16.74,46.85,41.27c0.28,9-2.24,17.44-6.77,24.48c-0.7,1.09-0.5,2.53,0.44,3.41l9.26,8.7
				c1.26,1.18,3.28,0.92,4.2-0.54c6.44-10.24,9.77-22.61,8.65-35.75C122.78,39.75,98.58,16.79,69.51,15.87z"/>
			<circle class="st2" cx="16.17" cy="16.24" r="13.48"/>
			<g>
				<path class="st0" d="M66.99,36.38c-18.3,0-33.13,14.83-33.13,33.13s14.83,33.13,33.13,33.13c0.67,0,1.33-0.03,1.99-0.07
					c-1.17-0.57-1.98-1.76-1.98-3.15c0-1.94,1.58-3.52,3.52-3.52s3.52,1.58,3.52,3.52c0,1.09-0.51,2.06-1.3,2.71
					c15.56-2.72,27.39-16.29,27.39-32.63C100.13,51.22,85.29,36.38,66.99,36.38z M47.58,44.08c1.94,0,3.52,1.58,3.52,3.52
					c0,1.94-1.58,3.52-3.52,3.52c-1.94,0-3.52-1.58-3.52-3.52C44.06,45.65,45.64,44.08,47.58,44.08z M48.04,73.45
					c-1.94,0-3.52-1.58-3.52-3.52s1.58-3.52,3.52-3.52s3.52,1.58,3.52,3.52S49.98,73.45,48.04,73.45z M55.2,58.44
					c-1.94,0-3.52-1.58-3.52-3.52c0-1.94,1.58-3.52,3.52-3.52c1.94,0,3.52,1.58,3.52,3.52C58.72,56.86,57.14,58.44,55.2,58.44z
					 M55.2,51.11c-1.94,0-3.52-1.58-3.52-3.52c0-1.94,1.58-3.52,3.52-3.52c1.94,0,3.52,1.58,3.52,3.52
					C58.72,49.53,57.14,51.11,55.2,51.11z M62.83,80.82c-1.94,0-3.52-1.58-3.52-3.52s1.58-3.52,3.52-3.52
					c1.94,0,3.52,1.58,3.52,3.52S64.77,80.82,62.83,80.82z M62.9,73.11c-1.94,0-3.52-1.58-3.52-3.52s1.58-3.52,3.52-3.52
					s3.52,1.58,3.52,3.52S64.84,73.11,62.9,73.11z M62.9,65.7c-1.94,0-3.52-1.58-3.52-3.52c0-1.94,1.58-3.52,3.52-3.52
					s3.52,1.58,3.52,3.52C66.41,64.13,64.84,65.7,62.9,65.7z M62.9,58.44c-1.94,0-3.52-1.58-3.52-3.52c0-1.94,1.58-3.52,3.52-3.52
					s3.52,1.58,3.52,3.52C66.41,56.86,64.84,58.44,62.9,58.44z M66.91,47.55c0-1.94,1.58-3.52,3.52-3.52s3.52,1.58,3.52,3.52
					c0,1.94-1.58,3.52-3.52,3.52S66.91,49.49,66.91,47.55z M70.52,88.07c-1.94,0-3.52-1.58-3.52-3.52s1.58-3.52,3.52-3.52
					s3.52,1.58,3.52,3.52S72.46,88.07,70.52,88.07z M70.52,80.66c-1.94,0-3.52-1.58-3.52-3.52c0-1.94,1.58-3.52,3.52-3.52
					s3.52,1.58,3.52,3.52C74.04,79.08,72.46,80.66,70.52,80.66z M70.52,73.18c-1.94,0-3.52-1.58-3.52-3.52s1.58-3.52,3.52-3.52
					s3.52,1.58,3.52,3.52S72.46,73.18,70.52,73.18z M70.52,65.78c-1.94,0-3.52-1.58-3.52-3.52c0-1.94,1.58-3.52,3.52-3.52
					s3.52,1.58,3.52,3.52C74.04,64.2,72.46,65.78,70.52,65.78z M78.15,95.4c-1.94,0-3.52-1.58-3.52-3.52s1.58-3.52,3.52-3.52
					s3.52,1.58,3.52,3.52S80.09,95.4,78.15,95.4z M78.22,88.07c-1.94,0-3.52-1.58-3.52-3.52s1.58-3.52,3.52-3.52
					s3.52,1.58,3.52,3.52S80.16,88.07,78.22,88.07z M78.22,80.73c-1.94,0-3.52-1.58-3.52-3.52s1.58-3.52,3.52-3.52
					s3.52,1.58,3.52,3.52S80.16,80.73,78.22,80.73z M78.22,73.25c-1.94,0-3.52-1.58-3.52-3.52s1.58-3.52,3.52-3.52
					s3.52,1.58,3.52,3.52S80.16,73.25,78.22,73.25z M78.22,65.85c-1.94,0-3.52-1.58-3.52-3.52c0-1.94,1.58-3.52,3.52-3.52
					s3.52,1.58,3.52,3.52C81.74,64.27,80.16,65.85,78.22,65.85z M85.84,80.66c-1.94,0-3.52-1.58-3.52-3.52
					c0-1.94,1.58-3.52,3.52-3.52s3.52,1.58,3.52,3.52C89.36,79.08,87.78,80.66,85.84,80.66z M85.84,73.25
					c-1.94,0-3.52-1.58-3.52-3.52s1.58-3.52,3.52-3.52s3.52,1.58,3.52,3.52S87.78,73.25,85.84,73.25z"/>
				<path class="st3" d="M70.52,95.92c-1.94,0-3.52,1.58-3.52,3.52c0,1.39,0.81,2.58,1.98,3.15c1.27-0.08,2.52-0.23,3.75-0.44
					c0.79-0.65,1.3-1.61,1.3-2.71C74.04,97.5,72.46,95.92,70.52,95.92z"/>
				<path class="st3" d="M85.84,73.63c-1.94,0-3.52,1.58-3.52,3.52c0,1.94,1.58,3.52,3.52,3.52s3.52-1.58,3.52-3.52
					C89.36,75.21,87.78,73.63,85.84,73.63z"/>
				<path class="st3" d="M78.15,88.37c-1.94,0-3.52,1.58-3.52,3.52s1.58,3.52,3.52,3.52s3.52-1.58,3.52-3.52
					S80.09,88.37,78.15,88.37z"/>
				<path class="st3" d="M78.22,81.04c-1.94,0-3.52,1.58-3.52,3.52s1.58,3.52,3.52,3.52s3.52-1.58,3.52-3.52
					S80.16,81.04,78.22,81.04z"/>
				<path class="st3" d="M78.22,73.7c-1.94,0-3.52,1.58-3.52,3.52s1.58,3.52,3.52,3.52s3.52-1.58,3.52-3.52S80.16,73.7,78.22,73.7z"
					/>
				<path class="st3" d="M70.52,81.04c-1.94,0-3.52,1.58-3.52,3.52s1.58,3.52,3.52,3.52s3.52-1.58,3.52-3.52
					S72.46,81.04,70.52,81.04z"/>
				<path class="st3" d="M70.52,73.63c-1.94,0-3.52,1.58-3.52,3.52c0,1.94,1.58,3.52,3.52,3.52s3.52-1.58,3.52-3.52
					C74.04,75.21,72.46,73.63,70.52,73.63z"/>
				<path class="st4" d="M48.04,66.41c-1.94,0-3.52,1.58-3.52,3.52s1.58,3.52,3.52,3.52s3.52-1.58,3.52-3.52
					S49.98,66.41,48.04,66.41z"/>
				<path class="st4" d="M70.42,51.06c1.94,0,3.52-1.58,3.52-3.52c0-1.94-1.58-3.52-3.52-3.52s-3.52,1.58-3.52,3.52
					C66.91,49.49,68.48,51.06,70.42,51.06z"/>
				<path class="st3" d="M62.83,73.79c-1.94,0-3.52,1.58-3.52,3.52s1.58,3.52,3.52,3.52c1.94,0,3.52-1.58,3.52-3.52
					S64.77,73.79,62.83,73.79z"/>
				<path class="st3" d="M78.22,66.22c-1.94,0-3.52,1.58-3.52,3.52s1.58,3.52,3.52,3.52s3.52-1.58,3.52-3.52
					S80.16,66.22,78.22,66.22z"/>
				<path class="st3" d="M85.84,66.22c-1.94,0-3.52,1.58-3.52,3.52s1.58,3.52,3.52,3.52s3.52-1.58,3.52-3.52
					S87.78,66.22,85.84,66.22z"/>
				<path class="st3" d="M70.52,66.15c-1.94,0-3.52,1.58-3.52,3.52s1.58,3.52,3.52,3.52s3.52-1.58,3.52-3.52
					S72.46,66.15,70.52,66.15z"/>
				<path class="st3" d="M62.9,66.08c-1.94,0-3.52,1.58-3.52,3.52s1.58,3.52,3.52,3.52s3.52-1.58,3.52-3.52S64.84,66.08,62.9,66.08z
					"/>
				<path class="st3" d="M78.22,58.82c-1.94,0-3.52,1.58-3.52,3.52c0,1.94,1.58,3.52,3.52,3.52s3.52-1.58,3.52-3.52
					C81.74,60.39,80.16,58.82,78.22,58.82z"/>
				<path class="st3" d="M70.52,58.74c-1.94,0-3.52,1.58-3.52,3.52c0,1.94,1.58,3.52,3.52,3.52s3.52-1.58,3.52-3.52
					C74.04,60.32,72.46,58.74,70.52,58.74z"/>
				<path class="st3" d="M62.9,58.67c-1.94,0-3.52,1.58-3.52,3.52c0,1.94,1.58,3.52,3.52,3.52s3.52-1.58,3.52-3.52
					C66.41,60.25,64.84,58.67,62.9,58.67z"/>
				<path class="st3" d="M62.9,51.41c-1.94,0-3.52,1.58-3.52,3.52c0,1.94,1.58,3.52,3.52,3.52s3.52-1.58,3.52-3.52
					C66.41,52.99,64.84,51.41,62.9,51.41z"/>
				<path class="st3" d="M55.2,51.41c-1.94,0-3.52,1.58-3.52,3.52c0,1.94,1.58,3.52,3.52,3.52c1.94,0,3.52-1.58,3.52-3.52
					C58.72,52.99,57.14,51.41,55.2,51.41z"/>
				<path class="st3" d="M55.2,44.08c-1.94,0-3.52,1.58-3.52,3.52c0,1.94,1.58,3.52,3.52,3.52c1.94,0,3.52-1.58,3.52-3.52
					C58.72,45.65,57.14,44.08,55.2,44.08z"/>
				<path class="st3" d="M47.58,51.11c1.94,0,3.52-1.58,3.52-3.52c0-1.94-1.58-3.52-3.52-3.52c-1.94,0-3.52,1.58-3.52,3.52
					C44.06,49.53,45.64,51.11,47.58,51.11z"/>
			</g>
		</g>
	</g>
</g>
</svg>
